<mxfile host="app.diagrams.net" agent="Mozilla/5.0 (Windows NT 10.0; Win64; x64) AppleWebKit/537.36 (KHTML, like Gecko) Chrome/130.0.0.0 Safari/537.36" version="24.8.4">
  <diagram name="Page-1" id="2YBvvXClWsGukQMizWep">
    <mxGraphModel dx="1839" dy="514" grid="1" gridSize="10" guides="1" tooltips="1" connect="1" arrows="1" fold="1" page="1" pageScale="1" pageWidth="850" pageHeight="1100" math="0" shadow="0">
      <root>
        <mxCell id="0" />
        <mxCell id="1" parent="0" />
        <mxCell id="QT0idfkxXLzTyoDSYEQH-2" value="" style="shape=umlLifeline;perimeter=lifelinePerimeter;whiteSpace=wrap;html=1;container=1;dropTarget=0;collapsible=0;recursiveResize=0;outlineConnect=0;portConstraint=eastwest;newEdgeStyle={&quot;curved&quot;:0,&quot;rounded&quot;:0};participant=umlActor;" parent="1" vertex="1">
          <mxGeometry x="80" y="50" width="20" height="180" as="geometry" />
        </mxCell>
        <mxCell id="QT0idfkxXLzTyoDSYEQH-3" value="&lt;u&gt;:Client/Guardian&lt;/u&gt;" style="text;html=1;align=center;verticalAlign=middle;resizable=0;points=[];autosize=1;strokeColor=none;fillColor=none;" parent="1" vertex="1">
          <mxGeometry x="35" y="20" width="110" height="30" as="geometry" />
        </mxCell>
        <mxCell id="QT0idfkxXLzTyoDSYEQH-4" value="&lt;u&gt;:System&lt;/u&gt;" style="shape=umlLifeline;perimeter=lifelinePerimeter;whiteSpace=wrap;html=1;container=1;dropTarget=0;collapsible=0;recursiveResize=0;outlineConnect=0;portConstraint=eastwest;newEdgeStyle={&quot;curved&quot;:0,&quot;rounded&quot;:0};" parent="1" vertex="1">
          <mxGeometry x="325" y="50" width="100" height="180" as="geometry" />
        </mxCell>
        <mxCell id="LRU_EcB0eDfxrB6BmX2D-1" value="&lt;u&gt;View Instructor Assigned Offerings Scenario&lt;/u&gt;&lt;div&gt;1. Client/Guardian logs in to the system.&lt;/div&gt;&lt;div&gt;2. Client/Guardian clicks on &quot;View available offerings and make bookings&quot;.&lt;/div&gt;&lt;div&gt;3. The System opens a new page with a table (OfferingsPage())&lt;/div&gt;&lt;div&gt;4. OfferingsPage calls&amp;nbsp;&lt;span style=&quot;background-color: initial;&quot;&gt;getOfferingsForViewing(). (SSD starts here)&lt;/span&gt;&lt;/div&gt;&lt;div&gt;&lt;span style=&quot;background-color: initial;&quot;&gt;&lt;span style=&quot;white-space: pre;&quot;&gt;&#x9;&lt;/span&gt;-So Client/Guardian practically calls&amp;nbsp;&lt;/span&gt;&lt;span style=&quot;background-color: initial;&quot;&gt;getOfferingsForViewing()&lt;/span&gt;&lt;span style=&quot;background-color: initial;&quot;&gt;&lt;br&gt;&lt;/span&gt;&lt;/div&gt;&lt;div&gt;&lt;span style=&quot;background-color: initial;&quot;&gt;5.&amp;nbsp;&lt;/span&gt;&lt;span style=&quot;background-color: initial;&quot;&gt;getOfferingsForViewing() returns Offerings that have an instructor assigned to them&lt;/span&gt;&lt;/div&gt;&lt;div&gt;&lt;span style=&quot;background-color: initial;&quot;&gt;6. The amount of detail for each Offering depends on if the Offering is at capacity or not.&lt;/span&gt;&lt;/div&gt;&lt;div&gt;&lt;span style=&quot;background-color: initial;&quot;&gt;&lt;span style=&quot;white-space: pre;&quot;&gt;&#x9;&lt;/span&gt;-Offerings at capacity show only location, city, start time and end time&lt;br&gt;&lt;/span&gt;&lt;/div&gt;&lt;div&gt;&lt;span style=&quot;background-color: initial;&quot;&gt;&lt;span style=&quot;white-space: pre;&quot;&gt;&#x9;&lt;/span&gt;-Available Offerings show all relevant details.&lt;br&gt;&lt;/span&gt;&lt;/div&gt;&lt;div&gt;&lt;span style=&quot;background-color: initial;&quot;&gt;&lt;br&gt;&lt;/span&gt;&lt;/div&gt;" style="shape=note;size=20;whiteSpace=wrap;html=1;align=left;" parent="1" vertex="1">
          <mxGeometry x="-490" y="70" width="550" height="190" as="geometry" />
        </mxCell>
        <mxCell id="LRU_EcB0eDfxrB6BmX2D-2" value="getOfferingsForViewing()" style="html=1;verticalAlign=bottom;endArrow=block;edgeStyle=elbowEdgeStyle;elbow=vertical;curved=0;rounded=0;" parent="1" edge="1">
          <mxGeometry relative="1" as="geometry">
            <mxPoint x="89.99857142857144" y="110" as="sourcePoint" />
            <Array as="points">
              <mxPoint x="180.07" y="110" />
            </Array>
            <mxPoint x="374.57" y="110" as="targetPoint" />
            <mxPoint as="offset" />
          </mxGeometry>
        </mxCell>
        <mxCell id="LRU_EcB0eDfxrB6BmX2D-3" value="Note that &quot;filtering&quot; is not a system operation, but rather just the system filtering the details for the Offerings. This is done AFTER displayedOfferings is returned." style="shape=note;size=20;whiteSpace=wrap;html=1;align=left;" parent="1" vertex="1">
          <mxGeometry x="460" y="90" width="330" height="140" as="geometry" />
        </mxCell>
        <mxCell id="u_acOAB_AmVKu_HRrPj9-1" value="displayedOfferings" style="html=1;verticalAlign=bottom;endArrow=block;edgeStyle=elbowEdgeStyle;elbow=vertical;curved=0;rounded=0;dashed=1;" edge="1" parent="1">
          <mxGeometry x="0.0003" relative="1" as="geometry">
            <mxPoint x="374.57" y="140" as="sourcePoint" />
            <Array as="points">
              <mxPoint x="180.07" y="140" />
            </Array>
            <mxPoint x="89.99857142857144" y="140" as="targetPoint" />
            <mxPoint as="offset" />
          </mxGeometry>
        </mxCell>
        <mxCell id="u_acOAB_AmVKu_HRrPj9-3" value="*filtering*" style="html=1;verticalAlign=bottom;endArrow=block;edgeStyle=elbowEdgeStyle;elbow=vertical;curved=0;rounded=0;" edge="1" parent="1">
          <mxGeometry relative="1" as="geometry">
            <mxPoint x="89.99857142857144" y="178" as="sourcePoint" />
            <Array as="points">
              <mxPoint x="180.07" y="178" />
            </Array>
            <mxPoint x="374.57" y="178" as="targetPoint" />
            <mxPoint as="offset" />
          </mxGeometry>
        </mxCell>
      </root>
    </mxGraphModel>
  </diagram>
</mxfile>
